<?xml version="1.0" encoding="utf-8"?>
<!-- Generator: Adobe Illustrator 19.2.1, SVG Export Plug-In . SVG Version: 6.00 Build 0)  -->
<svg version="1.1" id="Layer_1" xmlns="http://www.w3.org/2000/svg" xmlns:xlink="http://www.w3.org/1999/xlink" x="0px" y="0px"
	 viewBox="0 0 32 32" style="enable-background:new 0 0 32 32;" xml:space="preserve">
<style type="text/css">
	.st0{fill:#6ABE59;}
</style>
<g>
	<path class="st0" d="M29.8,5.1c-3.5-0.5-6.6-1.3-9.3-2.5c-1.4-0.6-2.7-1.3-3.8-2.1l-0.6-0.4l-0.1,0v0h0l-0.6,0.4
		C14.2,1.3,13,2,11.6,2.6c-2.7,1.2-5.7,2-9.3,2.5l-1,0.2l0,1c0,1.9,0.2,4,0.5,6.3v0C2,14.1,2.2,15.3,2.3,16c0,0,0,0,0,0
		c0.1,0.6,0.3,1.3,0.4,1.9l0,0c0.5,1.9,1,3.5,1.6,4.8c1,2.2,2.4,3.9,4.2,5.2c1.8,1.4,4.2,2.6,7.1,3.9l0.4,0.2l0,0l0.5-0.2
		c2.9-1.2,5.2-2.5,7.1-3.9c1.7-1.3,3.1-3,4.2-5.2c0.6-1.3,1.2-2.9,1.6-4.8l0,0c0.1-0.6,0.3-1.2,0.4-1.9c0,0,0,0,0,0
		c0.2-0.8,0.3-1.9,0.5-3.5v0c0.3-2.3,0.5-4.4,0.5-6.3l0-1L29.8,5.1z M22.5,7c0,0.2-0.2,0.4-0.4,0.4h-0.4c-0.4,0-0.6,0.3-0.6,0.6
		c0,0.4,0.3,0.6,0.6,0.6c0.2,0,0.4,0.2,0.4,0.4s-0.2,0.4-0.4,0.4h-1V23h0.6c0.2,0,0.4,0.2,0.4,0.4v1h0.4c0.2,0,0.4,0.2,0.4,0.4v1.4
		c0,0.2-0.2,0.4-0.4,0.4H10c-0.2,0-0.4-0.2-0.4-0.4v-1.4c0-0.2,0.2-0.4,0.4-0.4h0.4v-1c0-0.2,0.2-0.4,0.4-0.4h0.7V9.6h-1
		c-0.2,0-0.4-0.2-0.4-0.4s0.2-0.4,0.4-0.4c0.4,0,0.6-0.3,0.6-0.6c0-0.4-0.3-0.6-0.6-0.6H10C9.8,7.4,9.6,7.2,9.6,7V5.6
		c0-0.2,0.2-0.4,0.4-0.4h12.1c0.2,0,0.4,0.2,0.4,0.4V7z"/>
	<rect x="11.5" y="9.6" class="st0" width="0.9" height="13.4"/>
	<rect x="19.8" y="9.6" class="st0" width="0.9" height="13.4"/>
	<path class="st0" d="M12.4,9.6h1.1V9.2c0-0.2,0.2-0.4,0.4-0.4h-2.1C12,8.5,12,8.3,12,8.1c0-0.2-0.1-0.5-0.1-0.6h-1.4
		c0.4,0,0.6,0.3,0.6,0.6c0,0.4-0.3,0.6-0.6,0.6c-0.2,0-0.4,0.2-0.4,0.4s0.2,0.4,0.4,0.4h1H12.4z"/>
	<path class="st0" d="M20.3,7.4c-0.1,0.2-0.1,0.4-0.1,0.6c0,0.2,0.1,0.5,0.1,0.6h-2.2c0.2,0,0.4,0.2,0.4,0.4v0.4h1.2h0.9h1
		c0.2,0,0.4-0.2,0.4-0.4s-0.2-0.4-0.4-0.4c-0.4,0-0.6-0.3-0.6-0.6c0-0.4,0.3-0.6,0.6-0.6H20.3z"/>
	<path class="st0" d="M16.5,9.2v0.4h1.2V9.2c0-0.2,0.2-0.4,0.4-0.4h-2C16.3,8.7,16.5,8.9,16.5,9.2z"/>
	<path class="st0" d="M14.4,9.2v0.4h1.3V9.2c0-0.2,0.2-0.4,0.4-0.4H14C14.2,8.7,14.4,8.9,14.4,9.2z"/>
	<path class="st0" d="M14.4,9.2c0-0.2-0.2-0.4-0.4-0.4c-0.2,0-0.4,0.2-0.4,0.4v0.4V23h0.9V9.6V9.2z"/>
	<path class="st0" d="M17.7,9.2v0.4V23h0.9V9.6V9.2c0-0.2-0.2-0.4-0.4-0.4C17.9,8.7,17.7,8.9,17.7,9.2z"/>
	<path class="st0" d="M16.5,9.2c0-0.2-0.2-0.4-0.4-0.4c-0.2,0-0.4,0.2-0.4,0.4v0.4V23h0.9V9.6V9.2z"/>
	<path class="st0" d="M19.8,23h-1.2h-0.9h-1.2h-0.9h-1.3h-0.9h-1.1h-0.9h-0.7c-0.2,0-0.4,0.2-0.4,0.4v1H11v-0.8h10.1v0.8h0.6v-1
		c0-0.2-0.2-0.4-0.4-0.4h-0.6H19.8z"/>
	<path class="st0" d="M21.1,24.4H11h-0.6H10c-0.2,0-0.4,0.2-0.4,0.4v1.4c0,0.2,0.2,0.4,0.4,0.4h12.1c0.2,0,0.4-0.2,0.4-0.4v-1.4
		c0-0.2-0.2-0.4-0.4-0.4h-0.4H21.1z M21.9,26H10.2v-1h11.7V26z"/>
	<path class="st0" d="M22.1,5.1H10c-0.2,0-0.4,0.2-0.4,0.4V7c0,0.2,0.2,0.4,0.4,0.4h0.5h1.4h8.4h1.4h0.4c0.2,0,0.4-0.2,0.4-0.4V5.6
		C22.5,5.3,22.3,5.1,22.1,5.1z M10.2,5.8h11.7v1H10.2V5.8z"/>
</g>
</svg>
