
<svg xmlns="http://www.w3.org/2000/svg" version="1.1" xmlns:xlink="http://www.w3.org/1999/xlink" preserveAspectRatio="none" x="0px" y="0px" width="32px" height="32px" viewBox="0 0 32 32">
<defs>
<g id="Guild_Icon_22_0_Layer3_0_FILL">
<path fill="#000000" stroke="none" d="
M 165.7 29.1
L 165.85 24.7 161.35 24
Q 128.9 19.3 104.6 8.75 104.4982421875 8.7060546875 104.4 8.65
L 50.9 169.55
Q 62.1576171875 175.877734375 76.3 181.85
L 78.25 182.7 80.3 181.85
Q 106.2 170.8 122.65 158.65 138.2 147.2 147.25 127.95
L 147.25 128
Q 152.85 116.35 156.9 99.45
L 156.85 99.5
Q 158.25 94 159.35 88.05
L 159.3 88.15
Q 160.7 81.25 162.6 66.9
L 162.65 66.85
Q 165.2 45.95 165.7 29.1
M 122.9 82.25
L 105.15 65.5 105.15 43.05 145.65 82.4 105.05 121.6 105.05 99.1 122.9 82.25 Z"/>
</g>

<g id="Guild_Icon_22_0_Layer3_1_FILL">
<path fill="#000000" stroke="none" d="
M 60.05 98.7
L 42.65 82.25 59.95 65.95 59.95 40.7 17.05 82.4 60.05 123.95 60.05 98.7 Z"/>
</g>

<g id="Guild_Icon_22_0_Layer2_0_MEMBER_0_FILL">
<path fill="#000000" stroke="none" d="
M 80.95 -8.35
L 80.6 -8.15 80.6 8.4
Q 90.4591796875 14.6755859375 102.1 19.7
L 102.05 19.7
Q 125.35 29.85 155.7 34.9 154.95 48.8 152.95 65.35 151.1 79.2 149.75 85.8
L 149.75 85.85 149.7 85.9
Q 148.7 91.5 147.4 96.65
L 147.4 96.7
Q 143.7 112.2 138.6 122.9 130.85 139.25 117.75 149.05
L 117.75 149.1
Q 103.15 159.8 80.7 169.6 80.65 169.5783203125 80.6 169.55
L 80.6 184.8 80.75 184.9 83.55 183.7
Q 109.75 172.55 126.35 160.25 142.25 148.55 151.55 128.8 157.2 117 161.35 99.9
L 161.3 99.95
Q 162.65 94.45 163.8 88.55 163.8 88.45 163.8 88.4 165.2 81.5 167.1 67.15
L 167.1 67.1
Q 169.7 46.1 170.15 29.15
L 170.35 23 164.1 22.05
Q 131.95 17.4 107.85 6.9 95.2 1.45 84.85 -5.7
L 80.95 -8.35 Z"/>
</g>

<g id="Guild_Icon_22_0_Layer2_0_MEMBER_1_FILL">
<path fill="#000000" stroke="none" d="
M 79.7 -8.35
L 79.65 -8.35 75.75 -5.7
Q 65.4 1.45 52.75 6.9 28.65 17.4 -3.5 22.05
L -9.75 23 -9.55 29.15
Q -9.1 46.1 -6.5 67.1
L -6.5 67.15
Q -4.6 81.5 -3.2 88.4 -3.2 88.45 -3.2 88.55 -2.05 94.45 -0.7 99.95
L -0.75 99.9
Q 3.4 117 9.05 128.8 18.35 148.55 34.25 160.25 50.85 172.55 77.05 183.7
L 79.7 184.8 79.7 169.5
Q 57.3849609375 159.75234375 42.85 149.1
L 42.85 149.05
Q 29.75 139.25 22 122.9 16.9 112.2 13.2 96.7
L 13.2 96.65
Q 11.9 91.5 10.9 85.9
L 10.85 85.85 10.85 85.8
Q 9.5 79.2 7.65 65.35 5.65 48.8 4.9 34.9 35.25 29.85 58.55 19.7
L 58.5 19.7
Q 69.9642578125 14.7517578125 79.7 8.6
L 79.7 -8.35 Z"/>
</g>
</defs>

<g transform="matrix( 0.1649932861328125, 0, 0, 0.1649932861328125, 2.7,1.45) ">
<g transform="matrix( 1, 0, 0, 1, 0,0) ">
<use xlink:href="#Guild_Icon_22_0_Layer3_0_FILL"/>
</g>

<g transform="matrix( 1, 0, 0, 1, 0,0) ">
<use xlink:href="#Guild_Icon_22_0_Layer3_1_FILL"/>
</g>

<g transform="matrix( 1, 0, 0, 1, 0,0) ">
<use xlink:href="#Guild_Icon_22_0_Layer2_0_MEMBER_0_FILL"/>
</g>

<g transform="matrix( 1, 0, 0, 1, 0.9,0) ">
<use xlink:href="#Guild_Icon_22_0_Layer2_0_MEMBER_1_FILL"/>
</g>
</g>
</svg>
