<?xml version="1.0" encoding="utf-8"?>
<!-- Generator: Adobe Illustrator 19.2.1, SVG Export Plug-In . SVG Version: 6.00 Build 0)  -->
<svg version="1.1" id="type" xmlns="http://www.w3.org/2000/svg" xmlns:xlink="http://www.w3.org/1999/xlink" x="0px" y="0px"
	 viewBox="0 0 890 890" style="enable-background:new 0 0 890 890;" xml:space="preserve">
<style type="text/css">
	.st0{fill:#B2B2B2;}
	.st1{fill:#F0F0F0;}
	.st2{fill:#FFFFFF;}
	.st3{clip-path:url(#SVGID_2_);}
	.st4{fill:#00AF41;}
	.st5{fill:#346094;}
	.st6{opacity:0.1;}
</style>
<g>
	<g>
		<path class="st0" d="M443.7,0.1L25,147.4l66.2,548.5l352.9,194l354.8-196.6L865,144.8L443.7,0.1z M443.7,0.1"/>
		<path class="st1" d="M823.2,176.5L442.7,46.7v796.8l318.9-176.5L823.2,176.5z M823.2,176.5"/>
		<path class="st2" d="M72,178.9l56.7,490.6l314,174.2V46.7L72,178.9z M72,178.9"/>
	</g>
	<g>
		<defs>
			<polygon id="SVGID_1_" points="443,46.7 443,46.6 72.2,178.8 128.8,669.4 443,843.6 443,843.6 761.8,667.1 823.6,176.5 			"/>
		</defs>
		<clipPath id="SVGID_2_">
			<use xlink:href="#SVGID_1_"  style="overflow:visible;"/>
		</clipPath>
		<g class="st3">
			<path class="st4" d="M-929.3,990.8c-220,12.8-543.1-30.1-727.2-65.4c202.6,66.4,566.2,120.3,834.3,111.7
				c623.9-19.9,1093.5-291.2,1203.4-640.6C156.1,775-272,952.5-929.3,990.8z"/>
			<path class="st5" d="M389,144.2c0-31.1,25.2-56.2,56.2-56.2c31.1,0,56.2,25.2,56.2,56.2s-25.2,56.2-56.2,56.2
				C414.2,200.5,389,175.3,389,144.2z"/>
			<path class="st5" d="M227.5,381.7c0,0,75.1-111.6,144.6-144.2c102.3-48,156.6-2.7,227.8-7.1c53.9-3.4,96.7-42.3,96.7-42.3
				s-25.5,60.1-86,75.3c-50.6,12.7-101.6-4.7-124,27.2c-24.6,35-7.9,111.2,99.9,234.3c70.3,80.3,129.1,142.3,129.1,142.3
				S497.4,540.7,434.2,438.6c-34.8-56.2-31-98.9-37.6-130.6C382.9,243,227.5,381.7,227.5,381.7z"/>
			<path class="st4" d="M403,412.4c0,0,6.4,19.4,17,34.6c10.6,15.2,20.7,28.6,20.7,28.6S412,529,351.3,589.5
				c-55.6,55.4-122.8,98-122.8,98s60.9-61.6,114.5-150.8C384.8,466.9,403,412.4,403,412.4z"/>
		</g>
	</g>
	<path class="st6" d="M823.3,176.5L442.7,46.7v797l319-176.5L823.3,176.5z M823.3,176.5"/>
</g>
</svg>
