<?xml version="1.0" encoding="utf-8"?>
<!-- Generator: Adobe Illustrator 19.2.1, SVG Export Plug-In . SVG Version: 6.00 Build 0)  -->
<svg version="1.1" id="Layer_1" xmlns="http://www.w3.org/2000/svg" xmlns:xlink="http://www.w3.org/1999/xlink" x="0px" y="0px"
	 viewBox="0 0 32 32" style="enable-background:new 0 0 32 32;" xml:space="preserve">
<style type="text/css">
	.st0{fill:none;}
	.st1{fill:#6ABE59;}
</style>
<path class="st0" d="M11.2,14c0,3.3,2.7,5.9,5.9,5.9c3.3,0,5.9-2.7,5.9-5.9c0-3.3-2.7-5.9-5.9-5.9C13.9,8,11.2,10.7,11.2,14z
	 M17.1,9.5c2.5,0,4.4,2,4.4,4.4c0,2.5-2,4.4-4.4,4.4c-2.5,0-4.4-2-4.4-4.4C12.7,11.5,14.7,9.5,17.1,9.5z"/>
<path class="st0" d="M19.6,14h1c0-1.9-1.6-3.5-3.5-3.5v1C18.5,11.5,19.6,12.6,19.6,14z"/>
<path class="st0" d="M11.3,17.7l-3.6,3.6c-0.6,0.6-0.6,1.5,0,2.1s1.5,0.6,2.1,0l3.6-3.6C12.6,19.2,11.9,18.5,11.3,17.7z"/>
<g>
	<path class="st1" d="M29.7,5c-3.5-0.5-6.6-1.3-9.3-2.5c-1.4-0.6-2.7-1.3-3.8-2.1L16,0h-0.1l0,0l0,0l-0.6,0.4
		c-1.1,0.8-2.4,1.5-3.8,2.1C8.8,3.7,5.7,4.5,2.2,5l-1,0.2v1c0,1.9,0.2,4,0.5,6.3l0,0C1.9,14,2.1,15.2,2.3,16l0,0
		c0.1,0.6,0.3,1.3,0.4,1.9l0,0c0.5,1.9,1,3.5,1.6,4.8c1,2.2,2.4,3.9,4.2,5.2c1.8,1.4,4.2,2.6,7.1,3.9L16,32l0,0l0.5-0.2
		c2.9-1.2,5.2-2.5,7.1-3.9c1.7-1.3,3.1-3,4.2-5.2c0.6-1.3,1.2-2.9,1.6-4.8l0,0c0.1-0.6,0.3-1.2,0.4-1.9l0,0c0.2-0.8,0.3-1.9,0.5-3.5
		l0,0c0.3-2.3,0.5-4.4,0.5-6.3v-1L29.7,5z M10.2,23.9c-0.7,0.7-1.8,0.7-2.5,0s-0.7-1.8,0-2.5l4.2-4.2c0.6,1,1.5,1.8,2.5,2.5
		L10.2,23.9z M18.8,19.8c-3.8,0-6.9-3.1-6.9-6.9S15,6,18.8,6s6.9,3.1,6.9,6.9C25.8,16.7,22.7,19.8,18.8,19.8z"/>
	<path class="st1" d="M18.8,7.7c-2.9,0-5.2,2.3-5.2,5.2s2.3,5.2,5.2,5.2s5.2-2.3,5.2-5.2S21.7,7.7,18.8,7.7z M21.7,12.9
		c0-1.6-1.3-2.9-2.9-2.9V8.8c2.2,0,4,1.8,4,4L21.7,12.9L21.7,12.9z"/>
</g>
</svg>
