<?xml version="1.0" encoding="utf-8"?>
<!-- Generator: Adobe Illustrator 19.2.0, SVG Export Plug-In . SVG Version: 6.00 Build 0)  -->
<svg version="1.1" id="Capa_1" xmlns="http://www.w3.org/2000/svg" xmlns:xlink="http://www.w3.org/1999/xlink" x="0px" y="0px"
	 viewBox="0 0 102.6 102.6" style="enable-background:new 0 0 102.6 102.6;" xml:space="preserve">
<style type="text/css">
	.st0{fill:#967ADC;}
</style>
<g>
	<g>
		<path class="st0" d="M70.3,40.3c-0.7-0.2-1.4-0.5-2.3-0.7c-0.8-0.2-1.7-0.2-2.7-0.2c-1,0-1.9,0.2-2.8,0.3c-1,0.2-1.9,0.5-2.8,0.9
			c-0.9,0.4-1.8,0.9-2.6,1.4c-0.8,0.6-1.6,1.2-2.2,1.8c-0.7,0.7-1.3,1.4-1.8,2.1c-1.1,1.5-1.8,3.1-2.2,4.7c-0.2,0.8-0.4,1.5-0.4,2.2
			c-0.1,0.7-0.1,1.3-0.1,1.8c0,0.2,0,0.5,0,0.7c0.2-0.2,0.4-0.5,0.6-0.7c1.1-1.3,2.8-2.9,4.5-4.4c0.9-0.7,1.8-1.4,2.7-2
			c0.5-0.3,0.9-0.5,1.3-0.8c0.4-0.2,0.8-0.4,1.2-0.6c0.4-0.2,0.8-0.3,1.1-0.4c0.3-0.1,0.6-0.2,0.9-0.3c0.5-0.1,0.8-0.2,0.8-0.2
			s-0.3,0.1-0.7,0.3c-0.2,0.1-0.5,0.2-0.8,0.3c-0.3,0.2-0.7,0.3-1,0.5c-0.4,0.2-0.7,0.5-1.2,0.7c-0.4,0.3-0.8,0.6-1.2,0.9
			c-0.8,0.7-1.7,1.4-2.5,2.2c-1.6,1.6-3,3.3-4.1,4.6c-0.3,0.4-0.5,0.7-0.8,1c0.3,0,0.6,0,1,0c0.5,0,1.1,0,1.8-0.1
			c0.6-0.1,1.3-0.2,2.1-0.3c0.7-0.1,1.4-0.3,2.2-0.5c0.7-0.2,1.5-0.5,2.2-0.7c0.7-0.3,1.4-0.6,2.1-1c0.7-0.4,1.3-0.7,1.9-1.2
			c1.2-0.8,2.3-1.8,3.3-2.8c0.5-0.5,0.9-1.1,1.4-1.6c0.4-0.5,0.8-1.1,1.2-1.7c0.4-0.5,0.8-1.1,1.1-1.6c0.4-0.6,0.7-1,1-1.4
			c0.3-0.4,0.5-0.8,0.7-1c0.2-0.3,0.3-0.4,0.3-0.4s-0.1-0.1-0.3-0.3c-0.2-0.2-0.6-0.5-1-0.8C71.6,40.9,71,40.5,70.3,40.3z"/>
		<path class="st0" d="M84.8,65.4v-5.5H49.6c0.2-5.4,1.1-11.1,1.8-14.4c0.4-2,0.8-3.7,1-5.2c3-0.2,5.5-2.7,5.5-5.8
			c0-0.4,0-0.8-0.1-1.2c0.2,0.2,0.4,0.5,0.6,0.7c2.3,2.3,6,2.3,8.2,0c2.2-2.2,2.3-5.7,0.2-8c3.2-0.1,5.7-2.6,5.7-5.8
			c0-3.2-2.6-5.8-5.8-5.8c-0.3,0-0.5,0-0.8,0.1c0.1-0.1,0.3-0.3,0.5-0.4c2.3-2.3,2.3-6,0-8.2c-2.3-2.3-6-2.3-8.2,0
			c-0.2,0.2-0.3,0.4-0.5,0.6c0-0.2,0-0.3,0-0.5C57.6,2.6,55,0,51.8,0c-3.1,0-5.6,2.4-5.8,5.5c-2.3-2.1-5.8-2.1-8.1,0.1
			c-2.3,2.3-2.3,6,0,8.2c0.3,0.2,0.6,0.5,0.9,0.7c-0.2,0-0.5,0-0.7,0c-3.2,0-5.8,2.6-5.8,5.8c0,3.2,2.6,5.8,5.8,5.8
			c-2.2,2.3-2.2,5.9,0.1,8.2c2.3,2.3,5.9,2.3,8.2,0c0,0,0,0,0,0c0,2.7,1.8,4.9,4.3,5.6c-0.2,1.4-0.6,3.1-1,5
			c-0.5,2.4-1.1,5.1-1.5,7.8c0,0,0-0.1,0-0.1c-0.3-1.1-0.8-2.2-1.6-3.3c-0.4-0.5-0.8-1-1.3-1.5c-0.5-0.5-1-0.9-1.6-1.3
			c-0.6-0.4-1.2-0.7-1.8-1c-0.7-0.3-1.3-0.5-2-0.7c-0.7-0.1-1.3-0.2-2-0.2c-0.7,0-1.3,0-1.9,0.1c-0.6,0.1-1.1,0.3-1.6,0.5
			c-0.5,0.2-0.9,0.5-1.2,0.6c-0.3,0.2-0.6,0.4-0.7,0.5c-0.2,0.1-0.2,0.2-0.2,0.2s0.1,0.1,0.2,0.3c0.1,0.2,0.3,0.5,0.5,0.7
			c0.2,0.3,0.4,0.6,0.7,1c0.2,0.4,0.5,0.8,0.8,1.1c0.3,0.4,0.6,0.8,0.9,1.2c0.3,0.4,0.6,0.8,1,1.1c0.7,0.7,1.5,1.4,2.3,2
			c0.4,0.3,0.9,0.6,1.4,0.8c0.5,0.3,1,0.5,1.5,0.7c0.5,0.2,1,0.4,1.5,0.5c0.5,0.1,1,0.3,1.5,0.4c0.5,0.1,1,0.2,1.5,0.2
			c0.4,0.1,0.9,0.1,1.3,0.1c0.2,0,0.4,0,0.6,0c0,0.8,0,1.9,0,3.1h-30v5.5h30.4c0.1,0.9,0.3,1.9,0.4,2.8H20.1c0,0,3.7,34.5,15.2,34.5
			c11.5,0,15.5,0,29.9,0c14.4,0,16.7-34.5,16.7-34.5H50c-0.1-0.9-0.2-1.8-0.3-2.8L84.8,65.4L84.8,65.4z M47.1,20.1
			c0-2.8,2.3-5.1,5.1-5.1c2.8,0,5.1,2.3,5.1,5.1c0,2.8-2.3,5.1-5.1,5.1C49.4,25.2,47.1,22.9,47.1,20.1z M47.3,56.1
			c-0.7-1-1.7-2.2-2.9-3.3c-0.6-0.6-1.2-1.1-1.8-1.5c-0.3-0.2-0.6-0.4-0.9-0.6c-0.3-0.2-0.6-0.4-0.8-0.5c-0.3-0.1-0.5-0.3-0.7-0.4
			c-0.2-0.1-0.4-0.2-0.6-0.2c-0.3-0.1-0.5-0.2-0.5-0.2s0.2,0.1,0.5,0.1c0.2,0.1,0.4,0.1,0.6,0.2c0.2,0.1,0.5,0.2,0.8,0.3
			c0.3,0.1,0.6,0.3,0.9,0.5c0.3,0.2,0.6,0.4,0.9,0.6c0.6,0.4,1.3,0.9,1.9,1.4c1.2,1,2.2,2.1,3,3c0,0.4-0.1,0.9-0.1,1.3
			C47.6,56.5,47.5,56.3,47.3,56.1z"/>
	</g>
</g>
</svg>
