<?xml version="1.0" ?><!DOCTYPE svg  PUBLIC '-//W3C//DTD SVG 1.1//EN'  'http://www.w3.org/Graphics/SVG/1.1/DTD/svg11.dtd'><svg enable-background="new 0 0 24 24" height="24px" id="Layer_1" version="1.1" viewBox="0 0 24 24" width="24px" xml:space="preserve" xmlns="http://www.w3.org/2000/svg" xmlns:xlink="http://www.w3.org/1999/xlink"><g><path d="M13,6c0-1.1-0.9-2-2-2S9,4.9,9,6s0.9,2,2,2S13,7.1,13,6z M10,6c0-0.6,0.4-1,1-1s1,0.4,1,1s-0.4,1-1,1S10,6.6,10,6z"/><path d="M12,11.7c0.4-0.3,0.8-0.6,0.9-1.1c0.8,0.4,1.7,0.3,2.3-0.3c0.6-0.6,0.7-1.6,0.3-2.3C16.4,7.6,17,6.9,17,6s-0.6-1.6-1.4-1.9   c0.4-0.8,0.3-1.7-0.3-2.3c-0.6-0.6-1.6-0.7-2.3-0.3C12.6,0.6,11.9,0,11,0c-0.9,0-1.6,0.6-1.9,1.4C8.3,1,7.4,1.1,6.8,1.8   C6.1,2.4,6,3.3,6.4,4.1C5.6,4.4,5,5.1,5,6s0.6,1.6,1.4,1.9C6,8.7,6.1,9.6,6.8,10.2c0.6,0.6,1.6,0.7,2.3,0.3   c0.1,0.5,0.5,0.9,0.9,1.1V14H5l1,9c0,0.6,0.4,1,1,1h8c0.6,0,1-0.4,1-1l1-9h-5V11.7z M14.2,22H7.8l-0.3-4h7.2L14.2,22z M14.8,16   l-0.1,1H7.3l-0.1-1H14.8z M9,9.4L8.9,9.5c-0.4,0.4-1,0.4-1.4,0s-0.4-1,0-1.4L7.6,8l1-1H7.2H7C6.4,7,6,6.6,6,6s0.4-1,1-1h0.2h1.4   l-1-1L7.5,3.9c-0.4-0.4-0.4-1,0-1.4s1-0.4,1.4,0L9,2.6l1,1V2.2V2c0-0.6,0.4-1,1-1s1,0.4,1,1v0.2v1.4l1-1l0.1-0.1   c0.4-0.4,1-0.4,1.4,0s0.4,1,0,1.4L14.4,4l-1,1h1.4H15c0.6,0,1,0.4,1,1s-0.4,1-1,1h-0.2h-1.4l1,1l0.1,0.1c0.4,0.4,0.4,1,0,1.4   c-0.4,0.4-1,0.4-1.4,0L13,9.4l-1-1v1.4V10c0,0.6-0.4,1-1,1c-0.6,0-1-0.4-1-1V9.8V8.4L9,9.4z"/></g></svg>