<?xml version="1.0" encoding="utf-8"?>
<!-- Generator: Adobe Illustrator 19.2.0, SVG Export Plug-In . SVG Version: 6.00 Build 0)  -->
<svg version="1.1" id="Capa_1" xmlns="http://www.w3.org/2000/svg" xmlns:xlink="http://www.w3.org/1999/xlink" x="0px" y="0px"
	 viewBox="0 0 44.8 44.8" style="enable-background:new 0 0 44.8 44.8;" xml:space="preserve">
<style type="text/css">
	.st0{fill:#967ADC;}
</style>
<g>
	<g id="_x32__137_">
		<g>
			<path class="st0" d="M33.3,20c0,0,0-0.1,0-0.1c0-1.5-0.3-2.7-1.5-3.2c-1.2-0.5-2.3-0.5-3.1-0.2c-0.1,0-0.2,0.2-0.2,0.2
				c-0.1,0-0.3-0.1-0.4,0c-1.7,0.2-2.3,1.9-2.2,3.2c0.4,0.7,0.5,1.6,0.6,2.6c0.6,1.1,1.8,2,3.1,2c1.8,0,3.2-1.5,3.6-3.1
				c0.2,0,0.3-0.1,0.3-0.3l0.1-0.6C33.5,20.2,33.4,20,33.3,20z M29.5,24c-1.8,0-3.2-1.9-3.2-3.7c0-0.1,0-0.2,0-0.2
				c0.8-0.3,2.2-0.9,2.4-1.2c0.7,0.7,3,1.1,4.1,1.2c0,0.1,0,0.1,0,0.2C32.8,22,31.4,24,29.5,24z"/>
			<path class="st0" d="M9.6,20.3L9.7,21c0,0.2,0.2,0.3,0.3,0.3c0.4,1.6,1.8,3.1,3.6,3.1c1.4,0,2.5-0.9,3.2-2.1
				c0-0.8,0.2-1.6,0.7-2.3c0,0,0-0.1-0.1-0.1c0,0,0-0.1,0-0.1c0-1.5-0.3-2.7-1.5-3.2c-1.2-0.5-2.3-0.5-3.1-0.2
				c-0.1,0-0.2,0.2-0.2,0.2c-0.1,0-0.3-0.1-0.4,0c-1.7,0.2-2.3,1.9-2.2,3.2c0,0,0,0.1,0,0.1C9.7,20,9.6,20.2,9.6,20.3z M10.4,20
				c0.8-0.3,2.2-0.9,2.4-1.2c0.7,0.7,3,1.1,4.1,1.2c0,0.1,0,0.1,0,0.2c0,1.7-1.4,3.7-3.3,3.7c-1.8,0-3.2-1.9-3.2-3.7
				C10.4,20.2,10.4,20.1,10.4,20z"/>
			<path class="st0" d="M19,8.7c0.3,1,1.1,1.9,2.2,1.9c1.1,0,1.9-0.9,2.2-1.9c0.1,0,0.2-0.1,0.2-0.2l0-0.4c0-0.1-0.1-0.2-0.1-0.2
				c0,0,0,0,0-0.1c0-0.9-0.2-1.6-0.9-1.9c-0.7-0.3-1.4-0.3-1.9-0.1c0,0-0.1,0.1-0.1,0.1s-0.2,0-0.3,0C19.2,6,18.9,7,19,7.8
				c0,0,0,0,0,0.1c-0.1,0-0.2,0.1-0.2,0.2l0,0.4C18.8,8.6,18.9,8.7,19,8.7z M19.2,7.9c0.5-0.2,1.4-0.5,1.5-0.7
				c0.4,0.4,1.8,0.7,2.5,0.7c0,0,0,0.1,0,0.1c0,1-0.9,2.2-2,2.2c-1.1,0-2-1.2-2-2.2C19.2,8,19.2,8,19.2,7.9z"/>
			<path class="st0" d="M14.2,8.6c-1.5,0.2-2,1.6-1.9,2.7c0,0,0,0.1,0,0.1c-0.1,0-0.2,0.2-0.2,0.3l0,0.5c0,0.2,0.1,0.3,0.3,0.3
				c0.4,1.4,1.5,2.7,3,2.7c1.5,0,2.7-1.3,3.1-2.6c0.1,0,0.3-0.1,0.3-0.3l0-0.5c0-0.1-0.1-0.3-0.2-0.3c0,0,0-0.1,0-0.1
				c0-1.2-0.2-2.3-1.2-2.7c-1-0.4-2-0.4-2.6-0.2c0,0-0.2,0.2-0.2,0.2C14.5,8.7,14.3,8.6,14.2,8.6z M14.8,10.5c0.6,0.6,2.6,0.9,3.4,1
				c0,0.1,0,0.1,0,0.2c0,1.4-1.2,3.1-2.8,3.1c-1.6,0-2.7-1.6-2.7-3.1c0-0.1,0-0.1,0-0.2C13.4,11.2,14.6,10.7,14.8,10.5z"/>
			<path class="st0" d="M24,12.5c0.4,1.4,1.5,2.7,3,2.7c1.5,0,2.7-1.3,3.1-2.6c0.1,0,0.2-0.1,0.2-0.2l0.1,0c0,0,0,0,0,0l0-0.5
				c0,0,0-0.1,0-0.1l0,0c0-0.1-0.1-0.3-0.2-0.3c0,0,0-0.1,0-0.1c0-1.2-0.2-2.3-1.2-2.7c-1-0.4-2-0.4-2.6-0.2c0,0-0.2,0.2-0.2,0.2
				c0,0-0.3-0.1-0.4,0c-1.5,0.2-2,1.6-1.9,2.7c0,0,0,0.1,0,0.1c-0.1,0-0.2,0.2-0.2,0.3l0,0.5C23.7,12.4,23.8,12.5,24,12.5z
				 M24.3,11.4c0.6-0.2,1.9-0.7,2-1c0.6,0.6,2.6,0.9,3.4,1c0,0.1,0,0.1,0,0.2c0,1.4-1.2,3.1-2.8,3.1c-1.6,0-2.7-1.6-2.7-3.1
				C24.3,11.6,24.3,11.5,24.3,11.4z"/>
			<path class="st0" d="M18.7,12.7c-0.2,0.6-0.5,1.1-0.9,1.6l3.4,0v0l3.5,0c-0.4-0.5-0.7-1-0.9-1.6c-0.2-0.1-0.3-0.2-0.3-0.5l0-0.5
				c0-0.2,0.1-0.4,0.2-0.5c0-0.2,0-0.4,0-0.6c-0.2-0.2-0.4-0.4-0.7-0.4c-0.1,0-0.1,0-0.1,0l-0.9,1.2l-0.7-0.5l0,0v0l0,0l-0.7,0.5
				l-0.9-1.2c0,0-0.1,0-0.1,0c-0.3,0-0.5,0.2-0.7,0.3c0,0.2,0,0.4,0,0.7c0.1,0.1,0.2,0.3,0.2,0.5l0,0.5C19,12.5,18.9,12.6,18.7,12.7
				z"/>
			<path class="st0" d="M33.1,21.8c-0.3,0.7-0.7,1.3-1.2,1.8C32.4,23.1,32.8,22.4,33.1,21.8z"/>
			<path class="st0" d="M12.4,16.5C12.4,16.5,12.4,16.5,12.4,16.5C12.5,16.5,12.5,16.5,12.4,16.5c0.2-0.1,0.2-0.2,0.3-0.2
				c0.4-0.2,1-0.2,1.5-0.2l-1-1.3c-0.1,0-0.1,0-0.2,0c-0.9,0.1-1.5,1-1.9,2.1c0.3-0.1,0.6-0.3,0.9-0.3l0.1,0
				C12.2,16.4,12.3,16.4,12.4,16.5z"/>
			<path class="st0" d="M16.7,23.4l0.1,0.8c0,0.2,0.2,0.4,0.4,0.4c0.5,2,2.2,3.9,4.4,3.9c2.2,0,3.9-1.9,4.5-3.9
				c0.2,0,0.4-0.2,0.4-0.4l0.1-0.8c0-0.2-0.1-0.4-0.3-0.5c0,0,0-0.1,0-0.1c0-1.8-0.4-3.3-1.8-3.9c-1.5-0.6-2.8-0.6-3.8-0.3
				c-0.1,0-0.2,0.2-0.3,0.3c-0.1,0-0.4-0.1-0.5,0c-2.1,0.3-2.9,2.3-2.7,3.9c0,0,0,0.1,0,0.1C16.8,23,16.7,23.2,16.7,23.4z M17.6,23
				c0.9-0.3,2.8-1.1,2.9-1.4c0.8,0.9,3.7,1.3,5,1.5c0,0.1,0,0.2,0,0.2c0,2.1-1.8,4.5-4,4.5c-2.3,0-3.9-2.4-3.9-4.5
				C17.6,23.2,17.6,23.1,17.6,23z"/>
			<path class="st0" d="M16.4,16.4l-0.9-0.8l0,0v0l0,0l-0.6,0.5c0.4,0.1,0.8,0.2,1.2,0.3c1.3,0.6,1.6,2,1.6,3.3
				c0.5-0.6,1.2-1,2.1-1.2l0.1,0c0.1,0,0.2,0,0.3,0c0,0,0,0,0.1,0c-0.2-1.6-0.8-3.8-2.3-4c-0.1,0-0.2,0-0.2,0L16.4,16.4z"/>
			<path class="st0" d="M29.4,14.7c-0.1,0-0.2,0-0.2,0l-1.2,1.7L27,15.6l0,0v0l0,0L26,16.4l-1.2-1.7c0,0-0.1,0-0.2,0
				c-1.3,0.2-1.9,1.9-2.2,3.5c0.7,0,1.4,0.2,2.2,0.5c0.5,0.2,0.8,0.5,1.1,0.8c0-1.3,0.7-2.8,2.4-3l0.1,0c0.1,0,0.2,0,0.2,0
				c0,0,0,0,0.1,0c0,0,0,0,0,0c0.1-0.1,0.1-0.2,0.2-0.2c0.7-0.3,1.5-0.3,2.4-0.1C30.6,15.4,30.1,14.8,29.4,14.7z"/>
			<path class="st0" d="M21.6,35.9l7.1,0c0,0-0.2-7.7-3.6-8.2c-0.1,0-0.2,0-0.3,0l-1.8,2.4l-1.4-1.1l0,0v0l0,0l-1.4,1.1l-1.8-2.4
				c-0.1,0-0.2-0.1-0.3,0c-3.4,0.5-3.6,8.2-3.6,8.2L21.6,35.9L21.6,35.9L21.6,35.9z"/>
			<path class="st0" d="M29.5,30.5l5.8,0c0,0-0.2-6.3-3-6.7c-0.1,0-0.2,0-0.2,0l-1.5,2L29.5,25l0,0v0l0,0l-1.1,0.9l-1.5-2
				c0,0-0.1,0-0.2,0l0,0.3c0,0.3-0.2,0.5-0.4,0.6c-0.4,1.2-1.1,2.3-2.2,3.1c0,0.2-0.1,0.4-0.1,0.5l0.6-0.9l0.1,0
				c0.1,0,0.2-0.1,0.4-0.1c1.4,0.2,2.3,1.5,2.9,3.1L29.5,30.5L29.5,30.5L29.5,30.5z"/>
			<path class="st0" d="M7.8,30.5l5.8,0v0h1.6c0.6-1.5,1.5-2.9,2.9-3c0.2,0,0.4,0,0.4,0.1l0.1,0l0.6,0.8c0-0.2-0.1-0.4-0.1-0.6
				c-1-0.8-1.7-1.9-2-3c-0.3-0.1-0.4-0.3-0.5-0.6l0-0.3c0,0,0,0-0.1,0c-0.1,0-0.2,0-0.2,0l-1.5,2L13.6,25l0,0v0l0,0l-1.1,0.9l-1.5-2
				c-0.1,0-0.1,0-0.2,0C8,24.3,7.8,30.5,7.8,30.5z"/>
			<path class="st0" d="M37.4,4.9L40,1l-9.5,1.2l2.9,8.7l2.3-3.5c3.7,3.5,6,8.5,6,14c0,10.7-8.7,19.4-19.4,19.4
				C11.7,40.8,3,32.1,3,21.4C3,13.5,7.8,6.6,14.6,3.6l-2.3-2.3C5,5.1,0,12.6,0,21.4c0,12.3,10,22.4,22.4,22.4s22.4-10,22.4-22.4
				C44.8,14.9,41.9,9,37.4,4.9z"/>
		</g>
	</g>
</g>
</svg>
