<?xml version="1.0" encoding="utf-8"?>
<!-- Generator: Adobe Illustrator 19.2.0, SVG Export Plug-In . SVG Version: 6.00 Build 0)  -->
<svg version="1.1" id="Capa_1" xmlns="http://www.w3.org/2000/svg" xmlns:xlink="http://www.w3.org/1999/xlink" x="0px" y="0px"
	 viewBox="0 0 299 299" style="enable-background:new 0 0 299 299;" xml:space="preserve">
<style type="text/css">
	.st0{fill:#967ADC;}
</style>
<g>
	<g>
		<g id="Layer_5_17_">
			<g>
				<path class="st0" d="M211.2,13.4C191.6,4.5,170.9,0,149.6,0C91,0,37.5,34.5,13.4,87.8c-34,75.1-0.6,163.8,74.5,197.8
					c19.6,8.9,40.3,13.4,61.6,13.4c58.6,0,112-34.5,136.2-87.8C319.6,136.1,286.2,47.4,211.2,13.4z M135.1,55.6
					c12.7,0,23,10.3,23,23c0,12.7-10.3,23-23,23c-12.7,0-23-10.3-23-23C112.1,65.9,122.4,55.6,135.1,55.6z M206.6,244.7
					c-8.2,25.2-38.3,48-85.2,38.4v0c-9.7-2-19.1-5.1-28.3-9.3c-68.5-31-99-112.1-68-180.6C39.6,61.4,65.4,37,96.5,23.8
					c1.8-0.8,4.3-0.4,1.3,2c-12.9,9.8-17.4,18.7-20.6,33.1c-6.2,28.6,8.8,69,69.6,96.5C204,181.3,214.8,219.7,206.6,244.7z"/>
				<g>
					<circle class="st0" cx="163.4" cy="228.4" r="23"/>
				</g>
			</g>
		</g>
	</g>
</g>
</svg>
