<?xml version="1.0" encoding="utf-8"?>
<!-- Generator: Adobe Illustrator 19.2.0, SVG Export Plug-In . SVG Version: 6.00 Build 0)  -->
<svg version="1.1" id="Capa_1" xmlns="http://www.w3.org/2000/svg" xmlns:xlink="http://www.w3.org/1999/xlink" x="0px" y="0px"
	 viewBox="0 0 612 612" style="enable-background:new 0 0 612 612;" xml:space="preserve">
<style type="text/css">
	.st0{fill:#967ADC;}
</style>
<g>
	<g>
		<g>
			<path class="st0" d="M250.7,135.2c-5.7-5.7-13.8-8.4-21.8-7c-8,1.3-14.8,6.4-18.4,13.6L2.6,560c-4.8,9.7-2.9,21.3,4.7,28.9
				c4.8,4.8,11.3,7.4,17.8,7.4c3.8,0,7.6-0.9,11.2-2.6l418.3-207.9c7.2-3.6,12.3-10.5,13.6-18.4c1.3-8-1.3-16.1-7-21.8L250.7,135.2z
				 M80.9,515.5l159.1-320.1l28.4,28.4c-21.7,2.6-41.2,16.8-49.3,38.6c-11.6,31.1,4.2,65.7,35.2,77.2c31.1,11.6,65.7-4.2,77.3-35.3
				c1.7-4.6,2.8-9.3,3.3-14l66.1,66.1L80.9,515.5z"/>
			<path class="st0" d="M383.7,227.2c4.9,4.9,11.3,7.4,17.8,7.4c6.4,0,12.9-2.5,17.8-7.4L568.4,78.1c9.8-9.8,9.8-25.7,0-35.5
				c-9.8-9.8-25.7-9.8-35.5,0L383.7,191.7C373.9,201.5,373.9,217.4,383.7,227.2z"/>
			<path class="st0" d="M558.8,240.4l-111.3-12.7c-13.8-1.7-26.2,8.3-27.8,22.1c-1.6,13.8,8.3,26.2,22.1,27.8l111.3,12.7
				c1,0.1,1.9,0.2,2.9,0.2c12.6,0,23.5-9.5,24.9-22.3C582.5,254.4,572.6,242,558.8,240.4z"/>
			<path class="st0" d="M333.3,169.1c1.5,12.8,12.3,22.3,24.9,22.3c0.9,0,1.9-0.1,2.9-0.2c13.8-1.6,23.7-14,22.1-27.8L370.5,52.1
				c-1.6-13.8-14-23.6-27.8-22.1c-13.8,1.6-23.7,14-22.1,27.8L333.3,169.1z"/>
			<path class="st0" d="M558.8,182.7c-3.3-1.9-7.4-1.7-10.6,0.4l-5.9,4l-6.7-2.6c-3.5-1.4-7.6-0.7-10.4,1.9
				c-2.8,2.6-3.9,6.5-2.9,10.2l2,6.9l-4.5,5.5c-2.4,3-3,7-1.4,10.5c1.6,3.5,5,5.8,8.8,5.9l7.2,0.2l3.9,6c1.9,2.9,5.1,4.6,8.5,4.6
				c0.4,0,0.7,0,1.1-0.1c3.8-0.4,7-3,8.3-6.6l2.5-6.7l6.9-1.8c3.7-1,6.5-3.9,7.3-7.7c0.8-3.7-0.6-7.6-3.7-10l-5.7-4.4l0.4-7.2
				C564.1,188.2,562.1,184.6,558.8,182.7z"/>
			<path class="st0" d="M251.5,115.3l7.2,0.2l3.9,6c1.9,2.9,5.1,4.6,8.5,4.6c0.4,0,0.7,0,1.1-0.1c3.8-0.4,7-3,8.3-6.6l2.5-6.7
				l6.9-1.8c3.7-1,6.5-3.9,7.3-7.7c0.8-3.7-0.6-7.6-3.7-10l-5.7-4.4l0.4-7.2c0.2-3.8-1.7-7.4-5.1-9.3c-3.3-1.9-7.4-1.7-10.6,0.4
				l-5.9,4l-6.7-2.6c-3.6-1.4-7.6-0.6-10.4,1.9c-2.8,2.6-3.9,6.5-2.9,10.2l2,6.9l-4.6,5.5c-2.4,3-3,7-1.4,10.5
				C244.3,112.9,247.7,115.2,251.5,115.3z"/>
			<path class="st0" d="M602.5,107.3c-10.2-10.2-27.9-10.2-38,0c-8.8,8.8-8.8,23.1,0,31.9c7.4,7.4,19.5,7.4,26.9,0c2-2,2-5.1,0-7.1
				s-5.1-2-7.1,0c-3.5,3.5-9.2,3.5-12.7,0c-4.9-4.9-4.9-12.8,0-17.7c6.4-6.4,17.5-6.4,23.8,0c4.2,4.2,6.5,9.8,6.5,15.8
				s-2.3,11.6-6.5,15.8c-11.4,11.4-29.9,11.4-41.2,0c-2-2-5.1-2-7.1,0s-2,5.1,0,7.1c7.6,7.6,17.7,11.5,27.7,11.5
				c10,0,20.1-3.8,27.7-11.5c6.1-6.1,9.5-14.2,9.5-22.9C612,121.6,608.6,113.4,602.5,107.3z"/>
			<path class="st0" d="M504.1,315.1c-8.8,8.8-8.8,23.1,0,31.9c7.4,7.4,19.5,7.4,26.9,0c2-2,2-5.1,0-7.1c-2-2-5.1-2-7.1,0
				c-3.5,3.5-9.2,3.5-12.7,0c-4.9-4.9-4.9-12.8,0-17.6c6.4-6.4,17.5-6.4,23.8,0c4.2,4.2,6.5,9.8,6.5,15.8s-2.3,11.6-6.5,15.8
				c-11.4,11.4-29.9,11.4-41.2,0c-2-2-5.1-2-7.1,0s-2,5.1,0,7.1c7.6,7.6,17.7,11.5,27.7,11.5c10,0,20.1-3.8,27.7-11.5
				c6.1-6.1,9.5-14.2,9.5-22.9s-3.4-16.8-9.5-22.9C532,305,514.3,305,504.1,315.1z"/>
			<path class="st0" d="M441.3,87.3c0,0,0.1,0,0.2,0c7.2,0,13.9-2.9,19-8c5.1-5.1,7.8-11.9,7.8-19.1c0-6-2.4-11.7-6.7-15.9
				c-4.2-4.2-9.9-6.5-15.8-6.5c0,0-0.1,0-0.1,0c-10.5,0-19,8.6-18.9,19.1c0,2.8,2.3,5,5,5c0,0,0,0,0,0c2.8,0,5-2.3,5-5
				c0-2.4,0.9-4.7,2.6-6.4c1.7-1.7,3.6-2.7,6.4-2.7c3.3,0,6.4,1.3,8.8,3.6c2.4,2.3,3.7,5.5,3.7,8.8c0,4.5-1.7,8.7-4.9,11.9
				c-3.2,3.2-7.4,5-11.9,5c-5.8,0.1-11.6-2.3-15.8-6.5C421.4,66.6,419,61,419,55c-0.1-16.1,12.9-29.2,29-29.3c2.8,0,5-2.3,5-5
				s-2.3-5-5-5c0,0,0,0,0,0c-21.6,0.1-39.1,17.8-39,39.4c0,8.6,3.4,16.8,9.6,22.8C424.7,84,432.7,87.3,441.3,87.3z"/>
			<path class="st0" d="M226.1,362c5.9-15.9-2.1-33.6-18.1-39.6c-15.9-5.9-33.6,2.1-39.6,18.1c-6,15.9,2.2,33.6,18.1,39.6
				C202.4,386,220.2,377.9,226.1,362z"/>
			<circle class="st0" cx="228.1" cy="413.5" r="17.3"/>
		</g>
	</g>
</g>
</svg>
